<?xml version="1.0" encoding="utf-8"?>
<!-- Generator: Adobe Illustrator 22.1.0, SVG Export Plug-In . SVG Version: 6.00 Build 0)  -->
<svg version="1.1" id="Capa_1" xmlns="http://www.w3.org/2000/svg" xmlns:xlink="http://www.w3.org/1999/xlink" x="0px" y="0px"
	 viewBox="0 0 124 143" style="enable-background:new 0 0 124 143;" xml:space="preserve">
<style type="text/css">
	.st0{fill:#FE093E;}
</style>
<path class="st0" d="M113.1,110.9c-0.4-0.3-3.4-2.3-6.4-8.7c-5.5-11.6-6.6-28-6.6-39.6c0-0.1,0-0.1,0-0.2
	c-0.1-15.4-9.3-28.7-22.5-34.7v-9.1c0-8.3-6.7-15-15-15h-1.2c-8.3,0-15,6.7-15,15v9.1c-13.3,6-22.5,19.4-22.5,34.8
	c0,11.7-1.2,28-6.6,39.6c-3,6.3-6,8.4-6.4,8.7c-1.7,0.8-2.5,2.6-2.1,4.4c0.4,1.8,2.1,3.1,4,3.1h28.9c0.2,11.1,9.2,20.1,20.3,20.1
	s20.2-9,20.3-20.1h28.9c1.9,0,3.6-1.3,4-3.1C115.6,113.4,114.8,111.6,113.1,110.9z M54.3,18.6c0-3.9,3.2-7.1,7.1-7.1h1.2
	c3.9,0,7.1,3.2,7.1,7.1v6.6c-2.5-0.5-5.1-0.8-7.7-0.8c-2.6,0-5.2,0.3-7.7,0.8L54.3,18.6L54.3,18.6z M62,130.5
	c-6.8,0-12.3-5.4-12.4-12.2h24.9C74.3,125.1,68.8,130.5,62,130.5z M77.9,110.4c0,0-56.2,0-56.2,0c0.7-1.1,1.4-2.3,2.1-3.6
	c5.3-10.4,8-25.3,8-44.2c0-16.7,13.6-30.3,30.2-30.3s30.2,13.6,30.2,30.3c0,0,0,0.1,0,0.1c0,18.8,2.7,33.6,8,44
	c0.7,1.4,1.4,2.6,2.1,3.6L77.9,110.4z"/>
</svg>
