<svg id="Layer_1" data-name="Layer 1" xmlns="http://www.w3.org/2000/svg" viewBox="0 0 166 36.17"><defs><style>.cls-1{fill:#ff053e;}.cls-2{fill:#6f39f0;}.cls-3{fill:#00becf;}</style></defs><title>museo_latam_logo_A</title><path class="cls-1" d="M9.87,12.47a.73.73,0,0,1,.3-.16l.3,0h1.65a.86.86,0,0,1,.34.07.65.65,0,0,1,.24.19,1,1,0,0,1,.16.28l.12.31.23,1a3.17,3.17,0,0,1,.47-.7,3.35,3.35,0,0,1,.77-.65,4.25,4.25,0,0,1,1.12-.48,5.41,5.41,0,0,1,1.53-.2,5.31,5.31,0,0,1,1.25.14,4.09,4.09,0,0,1,1,.4,4.13,4.13,0,0,1,.85.66,6.64,6.64,0,0,1,.72.89,3.49,3.49,0,0,1,.62-.71,5,5,0,0,1,1-.68,6.34,6.34,0,0,1,1.27-.5,5.46,5.46,0,0,1,1.48-.2,4.67,4.67,0,0,1,2.18.48A4.47,4.47,0,0,1,29,13.85,5.8,5.8,0,0,1,30,15.79a8.65,8.65,0,0,1,.31,2.37v7.16a1,1,0,0,1-.18.63.72.72,0,0,1-.57.22H27a1,1,0,0,1-.65-.16.88.88,0,0,1-.17-.62V18.16a2.5,2.5,0,0,0-.15-.88,2.31,2.31,0,0,0-.41-.7,1.87,1.87,0,0,0-.64-.47,1.91,1.91,0,0,0-.84-.17,1.88,1.88,0,0,0-.78.16,2.15,2.15,0,0,0-.66.45,2.21,2.21,0,0,0-.45.7,2.27,2.27,0,0,0-.17.91v7.16a.9.9,0,0,1-.19.63.72.72,0,0,1-.57.22H18.77a1,1,0,0,1-.64-.16.83.83,0,0,1-.18-.62V18.16a2.75,2.75,0,0,0-.13-.88,2.1,2.1,0,0,0-.4-.7,1.79,1.79,0,0,0-.62-.47,1.87,1.87,0,0,0-.83-.17,1.9,1.9,0,0,0-.77.16,2.15,2.15,0,0,0-.68.44,2.77,2.77,0,0,0-.5.7,2.39,2.39,0,0,0-.23.9v7.22a1,1,0,0,1-.08.37.5.5,0,0,1-.21.28.8.8,0,0,1-.27.12,1.19,1.19,0,0,1-.29,0H10.47a.77.77,0,0,1-.89-.85V13.09a.8.8,0,0,1,.1-.38.66.66,0,0,1,.25-.27Z" transform="translate(-2 -1.79)"/><path class="cls-1" d="M45.79,26a.61.61,0,0,1-.3.15,1,1,0,0,1-.3,0H43.54a.89.89,0,0,1-.34-.07.92.92,0,0,1-.4-.47,1.73,1.73,0,0,1-.11-.32l-.23-1.06a2.68,2.68,0,0,1-.55.71,4.23,4.23,0,0,1-.95.69,5.88,5.88,0,0,1-1.29.53,6.2,6.2,0,0,1-1.6.2,4.89,4.89,0,0,1-2.21-.48,4.81,4.81,0,0,1-1.62-1.31,5.5,5.5,0,0,1-1-1.94,7.94,7.94,0,0,1-.34-2.37V13.11a.94.94,0,0,1,.18-.62.68.68,0,0,1,.57-.22h2.53a1,1,0,0,1,.64.16.82.82,0,0,1,.18.62v7.13a2.25,2.25,0,0,0,.18.89,2.49,2.49,0,0,0,.49.75,2.43,2.43,0,0,0,.71.51,2.19,2.19,0,0,0,.87.18,3.1,3.1,0,0,0,.86-.13A2.78,2.78,0,0,0,41,22a2.37,2.37,0,0,0,.65-.72,2,2,0,0,0,.27-1.05V13.08a1,1,0,0,1,.07-.37.61.61,0,0,1,.21-.28,1.62,1.62,0,0,1,.27-.13,1.23,1.23,0,0,1,.29,0h2.47a.88.88,0,0,1,.68.23.87.87,0,0,1,.21.61V25.36a.82.82,0,0,1-.09.38.68.68,0,0,1-.26.27Z" transform="translate(-2 -1.79)"/><path class="cls-1" d="M50.78,21.84a3,3,0,0,0,.64.5,4.06,4.06,0,0,0,.66.33,5.81,5.81,0,0,0,.56.18,1.65,1.65,0,0,0,.33.06l.53,0a3.09,3.09,0,0,0,.62-.1,1.2,1.2,0,0,0,.51-.27.66.66,0,0,0,.21-.52.87.87,0,0,0-.12-.49,1.07,1.07,0,0,0-.35-.31,3.44,3.44,0,0,0-.56-.22l-.75-.23a8.78,8.78,0,0,1-2.17-.84,4.93,4.93,0,0,1-1.35-1.1,3.6,3.6,0,0,1-.69-1.31,5.14,5.14,0,0,1-.2-1.48A3.76,3.76,0,0,1,49,14.37a3.59,3.59,0,0,1,1-1.27,4.66,4.66,0,0,1,1.6-.82A6.66,6.66,0,0,1,53.7,12,7.47,7.47,0,0,1,55,12.1a5.5,5.5,0,0,1,1.15.36,5.94,5.94,0,0,1,1.07.64,8.62,8.62,0,0,1,1,.92.65.65,0,0,1,.19.41.52.52,0,0,1-.24.41l-.82.69c-.26.23-.52.48-.8.76a.58.58,0,0,1-.26.13.57.57,0,0,1-.26,0,.8.8,0,0,1-.23-.11.85.85,0,0,1-.19-.19,2,2,0,0,0-.88-.57,3.15,3.15,0,0,0-.92-.15,1.62,1.62,0,0,0-.85.19.56.56,0,0,0-.29.57.58.58,0,0,0,.21.44,1.74,1.74,0,0,0,.47.26A5.08,5.08,0,0,0,54,17c.21,0,.4.09.57.14a16.33,16.33,0,0,1,1.81.69,5.49,5.49,0,0,1,1.42.91,3.94,3.94,0,0,1,.94,1.3A4.59,4.59,0,0,1,59,21.89a4.15,4.15,0,0,1-.43,1.93,4.26,4.26,0,0,1-1.19,1.44,5.44,5.44,0,0,1-1.79.88,7.59,7.59,0,0,1-2.22.31A8,8,0,0,1,52,26.33a6.33,6.33,0,0,1-2.61-1.08,5.06,5.06,0,0,1-1-1,1.14,1.14,0,0,1-.18-.32,1,1,0,0,1,0-.34.73.73,0,0,1,.06-.3.55.55,0,0,1,.2-.23l1.41-1.41a.5.5,0,0,1,.46-.16A1.63,1.63,0,0,1,50.78,21.84Z" transform="translate(-2 -1.79)"/><path class="cls-1" d="M73,24.5a7.38,7.38,0,0,1-2.17,1.39,6.6,6.6,0,0,1-2.54.49,7.51,7.51,0,0,1-2.84-.54,7.38,7.38,0,0,1-2.34-1.52A7.27,7.27,0,0,1,61.52,22a6.92,6.92,0,0,1-.59-2.85,7.21,7.21,0,0,1,.24-1.87,7.54,7.54,0,0,1,.67-1.69,6.69,6.69,0,0,1,1-1.45,6.5,6.5,0,0,1,1.38-1.13,6.7,6.7,0,0,1,1.66-.73,6.7,6.7,0,0,1,3.66,0,6.88,6.88,0,0,1,1.6.68,6.65,6.65,0,0,1,1.37,1,6.81,6.81,0,0,1,1.77,2.9,6,6,0,0,1,.24,1.7c0,.38,0,.69,0,.93a1,1,0,0,1-.17.57.85.85,0,0,1-.51.3,5.32,5.32,0,0,1-1,.08H65a2.68,2.68,0,0,0,.44,1.17,2.88,2.88,0,0,0,.77.75,3.44,3.44,0,0,0,.93.4,4,4,0,0,0,.93.12,4.45,4.45,0,0,0,.81-.08,6.87,6.87,0,0,0,.81-.22,4.62,4.62,0,0,0,.71-.32,2.5,2.5,0,0,0,.52-.38,2.09,2.09,0,0,1,.3-.21.5.5,0,0,1,.27-.07.51.51,0,0,1,.29.1,2.35,2.35,0,0,1,.33.28l1.16,1.31a.71.71,0,0,1,.15.26,1,1,0,0,1,0,.24.59.59,0,0,1-.12.37A1.53,1.53,0,0,1,73,24.5Zm-5.26-9.11a2.16,2.16,0,0,0-.83.17,3.25,3.25,0,0,0-.75.45,4.31,4.31,0,0,0-.63.65,4.36,4.36,0,0,0-.45.73h5.59a6.24,6.24,0,0,0-.5-.79,3.32,3.32,0,0,0-.61-.63,2.86,2.86,0,0,0-.79-.43A3.2,3.2,0,0,0,67.75,15.39Z" transform="translate(-2 -1.79)"/><path class="cls-1" d="M76.43,19.23a7.32,7.32,0,0,1,.26-1.94,7,7,0,0,1,1.84-3.16A6.5,6.5,0,0,1,80,13a7.27,7.27,0,0,1,1.72-.72,7.68,7.68,0,0,1,1.93-.25,7.11,7.11,0,0,1,2.8.56,6.81,6.81,0,0,1,2.27,1.52,7.18,7.18,0,0,1,2.1,5.1,7.25,7.25,0,0,1-.26,1.93,7.1,7.1,0,0,1-.72,1.72,7.19,7.19,0,0,1-2.57,2.57,7.2,7.2,0,0,1-1.71.72,7.46,7.46,0,0,1-1.91.25,7.68,7.68,0,0,1-1.93-.25A7.27,7.27,0,0,1,80,25.45a6.85,6.85,0,0,1-1.45-1.12,6.93,6.93,0,0,1-1.12-1.45,7.1,7.1,0,0,1-.72-1.72A7.25,7.25,0,0,1,76.43,19.23Zm4,0a4,4,0,0,0,.22,1.35,3.2,3.2,0,0,0,.64,1.09,2.9,2.9,0,0,0,1,.73,3.11,3.11,0,0,0,1.32.26,3,3,0,0,0,1.29-.26,2.92,2.92,0,0,0,1-.73,3.31,3.31,0,0,0,.61-1.09,4.41,4.41,0,0,0,0-2.69,3.52,3.52,0,0,0-.61-1.11,2.85,2.85,0,0,0-2.26-1,3,3,0,0,0-1.32.28,2.85,2.85,0,0,0-1,.76,3.4,3.4,0,0,0-.64,1.11A4,4,0,0,0,80.43,19.23Z" transform="translate(-2 -1.79)"/><path class="cls-2" d="M95.87,26a.43.43,0,0,1-.49.48H94.25c-.35,0-.52-.16-.52-.48V8.89a.43.43,0,0,1,.14-.35.48.48,0,0,1,.34-.13h1.15a.46.46,0,0,1,.37.14.48.48,0,0,1,.14.34Z" transform="translate(-2 -1.79)"/><path class="cls-2" d="M110.87,24.59a7.2,7.2,0,0,1-2.21,1.52,6.69,6.69,0,0,1-2.73.55,7,7,0,0,1-1.9-.26,6.82,6.82,0,0,1-1.73-.73,7.64,7.64,0,0,1-2.62-2.6,7.51,7.51,0,0,1-.74-1.72,7.35,7.35,0,0,1,0-3.8,7.51,7.51,0,0,1,.74-1.72,7.72,7.72,0,0,1,1.15-1.45,7,7,0,0,1,1.47-1.13,6.9,6.9,0,0,1,1.72-.73,7.1,7.1,0,0,1,1.91-.26,6.7,6.7,0,0,1,2.73.56,7,7,0,0,1,2.21,1.51V13a.48.48,0,0,1,.48-.49h1.14c.35,0,.52.16.52.49V26a.48.48,0,0,1-.14.35.49.49,0,0,1-.35.13h-1.14a.5.5,0,0,1-.45-.24.58.58,0,0,1-.06-.26Zm.07-5.08a5.1,5.1,0,0,0-.4-2,5.3,5.3,0,0,0-1.07-1.63,5.14,5.14,0,0,0-1.59-1.12,4.77,4.77,0,0,0-3.87,0,5.17,5.17,0,0,0-1.57,1.12,5.27,5.27,0,0,0-1.06,1.63,5.15,5.15,0,0,0,0,3.93,5.37,5.37,0,0,0,1.06,1.65A5.26,5.26,0,0,0,104,24.27a4.67,4.67,0,0,0,3.87,0,5.23,5.23,0,0,0,1.59-1.15,5.39,5.39,0,0,0,1.07-1.65A5.09,5.09,0,0,0,110.94,19.51Z" transform="translate(-2 -1.79)"/><path class="cls-2" d="M119.6,26.64a4.29,4.29,0,0,1-1-.12,2.38,2.38,0,0,1-.91-.42,2.26,2.26,0,0,1-.66-.82,2.89,2.89,0,0,1-.26-1.33V14.48H115.5a.72.72,0,0,1-.4-.09c-.08-.05-.13-.18-.13-.38V13c0-.2,0-.32.13-.37a.83.83,0,0,1,.4-.08h1.26V10.18a.37.37,0,0,1,.08-.26.57.57,0,0,1,.26-.14,1.65,1.65,0,0,1,.27,0l.43-.07.57-.1a.68.68,0,0,1,.3,0,.3.3,0,0,1,.16.13.65.65,0,0,1,.06.21,1.77,1.77,0,0,1,0,.24v2.35h1.49a.46.46,0,0,1,.36.12.54.54,0,0,1,.12.41v.89a.59.59,0,0,1-.12.42.43.43,0,0,1-.36.13H118.9v9.46a.69.69,0,0,0,.18.54.78.78,0,0,0,.51.15.57.57,0,0,1,.4.15.56.56,0,0,1,.16.43v.88a.54.54,0,0,1-.15.4A.55.55,0,0,1,119.6,26.64Z" transform="translate(-2 -1.79)"/><path class="cls-2" d="M134.61,24.59a7.16,7.16,0,0,1-2.2,1.52,6.69,6.69,0,0,1-2.73.55,7.23,7.23,0,0,1-3.64-1,8,8,0,0,1-1.47-1.14,7.07,7.07,0,0,1-1.14-8.7,7.29,7.29,0,0,1,1.14-1.45A7.58,7.58,0,0,1,126,13.25a7.14,7.14,0,0,1,1.73-.73,7,7,0,0,1,1.91-.26,6.7,6.7,0,0,1,2.73.56,7,7,0,0,1,2.2,1.51V13a.49.49,0,0,1,.49-.49h1.14c.34,0,.52.16.52.49V26a.45.45,0,0,1-.15.35.47.47,0,0,1-.34.13h-1.15a.49.49,0,0,1-.51-.5Zm.1-5.08a4.92,4.92,0,0,0-.4-2,5.3,5.3,0,0,0-1.07-1.63,5.14,5.14,0,0,0-1.59-1.12,4.77,4.77,0,0,0-3.87,0,5.17,5.17,0,0,0-1.57,1.12,5.27,5.27,0,0,0-1.06,1.63,5.15,5.15,0,0,0,0,3.93,5.37,5.37,0,0,0,1.06,1.65,5.26,5.26,0,0,0,1.57,1.15,4.67,4.67,0,0,0,3.87,0,5.23,5.23,0,0,0,1.59-1.15,5.39,5.39,0,0,0,1.07-1.65A4.91,4.91,0,0,0,134.71,19.51Z" transform="translate(-2 -1.79)"/><path class="cls-2" d="M141.93,14.14a7.62,7.62,0,0,1,.66-.72,4.64,4.64,0,0,1,.79-.59,3.46,3.46,0,0,1,1-.39,4.76,4.76,0,0,1,1.27-.15,5.5,5.5,0,0,1,2.82.65,4.53,4.53,0,0,1,1.75,1.87,4,4,0,0,1,.8-1.18,4.18,4.18,0,0,1,1.09-.78,5.18,5.18,0,0,1,1.31-.44,8.24,8.24,0,0,1,1.42-.13,5.69,5.69,0,0,1,2.37.47A4.92,4.92,0,0,1,158.92,14a5.57,5.57,0,0,1,1.05,1.9,7.32,7.32,0,0,1,.36,2.32v7.45a.73.73,0,0,1-.2.56.63.63,0,0,1-.48.19h-.78s-.44,0-.52-.13a.54.54,0,0,1,0-.54V18.3c-.12-.43-.18-.88-.3-1.34a3.73,3.73,0,0,0-.59-1.24,3.12,3.12,0,0,0-1.09-.9,3.53,3.53,0,0,0-1.67-.35,3.83,3.83,0,0,0-1.48.26,2.9,2.9,0,0,0-1.11.76,3.21,3.21,0,0,0-.7,1.21,4.2,4.2,0,0,0-.2,1.62v7.42a.94.94,0,0,1-.23.56,2.87,2.87,0,0,1-.49.32h-.78a.68.68,0,0,1-.53-.16,1.08,1.08,0,0,1-.11-.55V18.45a4.82,4.82,0,0,0-.19-1.34,3.64,3.64,0,0,0-.59-1.24,3.07,3.07,0,0,0-1.1-.91,3.6,3.6,0,0,0-1.68-.35,3.77,3.77,0,0,0-1.27.22,3.6,3.6,0,0,0-1.16.66,3.47,3.47,0,0,0-.83,1.09,3.18,3.18,0,0,0-.33,1.47V26a.47.47,0,0,1-.48.48h-1.14c-.34,0-.52-.16-.52-.48V13a.43.43,0,0,1,.15-.35.48.48,0,0,1,.34-.14h1.15a.47.47,0,0,1,.44.24.48.48,0,0,1,.06.26Z" transform="translate(-2 -1.79)"/><path class="cls-3" d="M13.32,34.67a2.32,2.32,0,0,1-.63.4,1.93,1.93,0,0,1-.75.15,2.41,2.41,0,0,1-.84-.16,2.37,2.37,0,0,1-.68-.45,2,2,0,0,1-.64-1.51,2.51,2.51,0,0,1,.06-.55,2.1,2.1,0,0,1,.2-.49,2.24,2.24,0,0,1,.31-.43,2.06,2.06,0,0,1,.4-.33,2.24,2.24,0,0,1,.5-.22A1.93,1.93,0,0,1,11.8,31a1.81,1.81,0,0,1,.52.07,1.63,1.63,0,0,1,.47.2,1.66,1.66,0,0,1,.4.31,2.07,2.07,0,0,1,.52.85,1.61,1.61,0,0,1,.07.49v.28a.34.34,0,0,1,0,.16.28.28,0,0,1-.15.1l-.31,0H11a.73.73,0,0,0,.13.34.69.69,0,0,0,.23.22,1.11,1.11,0,0,0,.27.12l.27,0,.24,0,.23-.07a.67.67,0,0,0,.21-.09.37.37,0,0,0,.15-.11l.1-.06.07,0,.09,0,.1.08.34.39a.25.25,0,0,1,0,.07.17.17,0,0,1,0,.07.2.2,0,0,1,0,.11ZM11.78,32a.56.56,0,0,0-.25.05.67.67,0,0,0-.21.13.86.86,0,0,0-.19.19.8.8,0,0,0-.13.21h1.64a1.21,1.21,0,0,0-.15-.22.89.89,0,0,0-.41-.32A.91.91,0,0,0,11.78,32Z" transform="translate(-2 -1.79)"/><path class="cls-3" d="M15.44,31.13a.2.2,0,0,1,.09-.05h.57l.1,0a.2.2,0,0,1,.07.06.35.35,0,0,1,.05.08l0,.09.07.29a.69.69,0,0,1,.15-.21,1.85,1.85,0,0,1,.27-.19,1.58,1.58,0,0,1,.37-.15,2.16,2.16,0,0,1,.46,0,1.56,1.56,0,0,1,.66.14,1.54,1.54,0,0,1,.49.39,1.77,1.77,0,0,1,.3.56,2.28,2.28,0,0,1,.11.7v2.1a.27.27,0,0,1-.06.19.2.2,0,0,1-.16.06h-.75a.32.32,0,0,1-.19,0,.27.27,0,0,1-.05-.19V32.83a.58.58,0,0,0-.06-.26,1.12,1.12,0,0,0-.16-.22,1.2,1.2,0,0,0-.24-.15.59.59,0,0,0-.27-.05.5.5,0,0,0-.23.05.64.64,0,0,0-.22.14.62.62,0,0,0-.17.22.5.5,0,0,0-.08.27v2.08a.6.6,0,0,1,0,.12.27.27,0,0,1-.07.08.11.11,0,0,1-.07,0h-.81a.31.31,0,0,1-.21-.06.29.29,0,0,1-.06-.19V31.31a.2.2,0,0,1,0-.11.2.2,0,0,1,.08-.08Z" transform="translate(-2 -1.79)"/><path class="cls-3" d="M23.51,33.9a.18.18,0,0,1,.09,0h.06l.1,0a.3.3,0,0,1,.09.1l.36.54a.33.33,0,0,1,0,.06.11.11,0,0,1,0,0,.16.16,0,0,1,0,.12l-.1.08a2.89,2.89,0,0,1-.58.3,2.08,2.08,0,0,1-.66.11,2.17,2.17,0,0,1-1.06-.29,2.22,2.22,0,0,1-.42-.32,2,2,0,0,1-.33-.43,2.1,2.1,0,0,1-.21-.51,1.77,1.77,0,0,1-.08-.56,1.89,1.89,0,0,1,.08-.58,2.21,2.21,0,0,1,.21-.5,1.7,1.7,0,0,1,.33-.42,1.91,1.91,0,0,1,.42-.33A2,2,0,0,1,22.87,31a2.15,2.15,0,0,1,.64.09,1.73,1.73,0,0,1,.56.28h0a.25.25,0,0,1,.11.09.24.24,0,0,1,0,.15.26.26,0,0,1,0,.11l-.29.49a.25.25,0,0,1-.22.16l-.07,0-.09-.05-.3-.15a1,1,0,0,0-.35-.06.87.87,0,0,0-.37.08.8.8,0,0,0-.29.23,1.13,1.13,0,0,0-.19.32,1.09,1.09,0,0,0-.07.4,1,1,0,0,0,.07.39,1.13,1.13,0,0,0,.19.32.86.86,0,0,0,.29.21.75.75,0,0,0,.37.08,1.07,1.07,0,0,0,.35-.06A2.19,2.19,0,0,0,23.51,33.9Z" transform="translate(-2 -1.79)"/><path class="cls-3" d="M29.55,35.1a.12.12,0,0,1-.08,0h-.58a.16.16,0,0,1-.1,0,.18.18,0,0,1-.07-.05l0-.08,0-.1-.06-.31a.78.78,0,0,1-.17.21,1.18,1.18,0,0,1-.27.2,1.61,1.61,0,0,1-.38.16,1.8,1.8,0,0,1-.48.06,1.44,1.44,0,0,1-.64-.14,1.52,1.52,0,0,1-.77-1,2.28,2.28,0,0,1-.11-.7v-2.1a.29.29,0,0,1,.06-.19.22.22,0,0,1,.17-.06h.74a.19.19,0,0,1,.24.23v2.09a.63.63,0,0,0,.06.27.74.74,0,0,0,.14.22.52.52,0,0,0,.21.14.54.54,0,0,0,.25.06.77.77,0,0,0,.25,0,1.51,1.51,0,0,0,.26-.12.77.77,0,0,0,.19-.21.62.62,0,0,0,.07-.31V31.31a.43.43,0,0,1,0-.11.35.35,0,0,1,.06-.09s.06,0,.09,0h.81a.23.23,0,0,1,.26.25v3.59a.24.24,0,0,1,0,.12.2.2,0,0,1-.08.08Z" transform="translate(-2 -1.79)"/><path class="cls-3" d="M34.73,34.67a2.32,2.32,0,0,1-.63.4,1.93,1.93,0,0,1-.75.15,2.37,2.37,0,0,1-.84-.16,2.24,2.24,0,0,1-.68-.45,2.11,2.11,0,0,1-.65-1.51,2.51,2.51,0,0,1,.07-.55,2.1,2.1,0,0,1,.2-.49,1.88,1.88,0,0,1,.31-.43,2.06,2.06,0,0,1,.4-.33,2.16,2.16,0,0,1,.49-.22,2,2,0,0,1,.56-.07,1.81,1.81,0,0,1,.52.07,1.63,1.63,0,0,1,.47.2,1.66,1.66,0,0,1,.4.31,1.48,1.48,0,0,1,.31.39,1.75,1.75,0,0,1,.21.46,1.61,1.61,0,0,1,.07.49v.28a.34.34,0,0,1,0,.16.28.28,0,0,1-.15.1l-.31,0H32.37a.73.73,0,0,0,.13.34.77.77,0,0,0,.22.22,1.39,1.39,0,0,0,.28.12l.27,0,.23,0,.24-.07A.67.67,0,0,0,34,34a.37.37,0,0,0,.15-.11l.09-.06.08,0,.09,0,.1.08.34.39a.25.25,0,0,1,0,.07.17.17,0,0,1,0,.07.2.2,0,0,1,0,.11ZM33.19,32a.53.53,0,0,0-.25.05.85.85,0,0,0-.22.13.81.81,0,0,0-.18.19.8.8,0,0,0-.13.21h1.64a1.21,1.21,0,0,0-.15-.22.89.89,0,0,0-.41-.32A1,1,0,0,0,33.19,32Z" transform="translate(-2 -1.79)"/><path class="cls-3" d="M36.85,31.13a.14.14,0,0,1,.08-.05h.58l.1,0s0,0,.07.06a.3.3,0,0,1,0,.08l0,.09.07.29A.69.69,0,0,1,38,31.4a1.43,1.43,0,0,1,.27-.19,1.58,1.58,0,0,1,.37-.15,2.16,2.16,0,0,1,.46,0,1.56,1.56,0,0,1,.66.14,1.54,1.54,0,0,1,.49.39,1.77,1.77,0,0,1,.3.56,2.28,2.28,0,0,1,.11.7v2.1a.27.27,0,0,1-.06.19.21.21,0,0,1-.17.06h-.74a.32.32,0,0,1-.19,0,.27.27,0,0,1,0-.19V32.83a.58.58,0,0,0-.06-.26.87.87,0,0,0-.17-.22A.91.91,0,0,0,39,32.2a.65.65,0,0,0-.27-.05.5.5,0,0,0-.23.05.64.64,0,0,0-.22.14.79.79,0,0,0-.18.22.6.6,0,0,0-.07.27v2.08A.6.6,0,0,1,38,35a.27.27,0,0,1-.07.08.11.11,0,0,1-.07,0H37a.29.29,0,0,1-.21-.06.29.29,0,0,1-.06-.19V31.31a.2.2,0,0,1,0-.11.27.27,0,0,1,.07-.08Z" transform="translate(-2 -1.79)"/><path class="cls-3" d="M42.55,30.44a.19.19,0,0,1,.07-.16.67.67,0,0,1,.19-.09l.73-.26h.06c.07,0,.13,0,.15.07a.34.34,0,0,1,0,.18v.89h.44a.24.24,0,0,1,.17.06.24.24,0,0,1,.06.18v.62a.28.28,0,0,1-.06.2.24.24,0,0,1-.17.06h-.44V34.9a.24.24,0,0,1-.07.19.27.27,0,0,1-.19.06H42.8a.22.22,0,0,1-.25-.25V32.19h-.33c-.17,0-.25-.08-.25-.26v-.62c0-.16.08-.24.25-.24h.33Z" transform="translate(-2 -1.79)"/><path class="cls-3" d="M46,31.31a.36.36,0,0,1,0-.11.2.2,0,0,1,.06-.07l.08-.05h.58a.15.15,0,0,1,.13.05.36.36,0,0,1,.08.12.76.76,0,0,1,.06.16l.06.18.19-.21a1.18,1.18,0,0,1,.21-.18,1.09,1.09,0,0,1,.23-.14,1,1,0,0,1,.3,0,1.47,1.47,0,0,1,.31,0,1.12,1.12,0,0,1,.26.08.94.94,0,0,1,.24.13l.27.17a.23.23,0,0,1,.13.2.29.29,0,0,1,0,.16l-.29.49a.25.25,0,0,1-.22.13l-.14,0a1.2,1.2,0,0,0-.28-.21.88.88,0,0,0-.33-.06.73.73,0,0,0-.22,0,1,1,0,0,0-.17.1l-.15.16a1.74,1.74,0,0,0-.13.2V34.9a.27.27,0,0,1-.06.19.27.27,0,0,1-.2.06h-.72A.22.22,0,0,1,46,34.9Z" transform="translate(-2 -1.79)"/><path class="cls-3" d="M50.34,33.12a2.25,2.25,0,0,1,.07-.58,2.81,2.81,0,0,1,.22-.5,1.7,1.7,0,0,1,.33-.42,1.91,1.91,0,0,1,.42-.33,2.28,2.28,0,0,1,.51-.21,2.12,2.12,0,0,1,.57-.07,2.07,2.07,0,0,1,.82.16,2.14,2.14,0,0,1,.67.45,2.2,2.2,0,0,1,.45.66,2.32,2.32,0,0,1,.16.84,2.1,2.1,0,0,1-.08.56,1.75,1.75,0,0,1-.2.51,2.88,2.88,0,0,1-.33.43,2.29,2.29,0,0,1-.43.32,2.21,2.21,0,0,1-.5.21,2,2,0,0,1-1.13,0,2.28,2.28,0,0,1-.51-.21,2.22,2.22,0,0,1-.42-.32,2,2,0,0,1-.33-.43,2.61,2.61,0,0,1-.22-.51A2.1,2.1,0,0,1,50.34,33.12Zm1.17,0a1,1,0,0,0,.07.39,1.13,1.13,0,0,0,.19.32.78.78,0,0,0,.29.21.8.8,0,0,0,.39.08.9.9,0,0,0,.66-.29.92.92,0,0,0,.18-.32,1.23,1.23,0,0,0,.06-.39,1.34,1.34,0,0,0-.06-.4.92.92,0,0,0-.18-.32.73.73,0,0,0-.29-.23.91.91,0,0,0-.37-.08.93.93,0,0,0-.39.08.73.73,0,0,0-.29.23,1.13,1.13,0,0,0-.19.32A1.09,1.09,0,0,0,51.51,33.12Z" transform="translate(-2 -1.79)"/><path class="cls-3" d="M61.92,34.75a1.62,1.62,0,0,1-.19.17,1.43,1.43,0,0,1-.24.16,1.33,1.33,0,0,1-.28.1,1.13,1.13,0,0,1-.32,0,1.91,1.91,0,0,1-.8-.17,2.08,2.08,0,0,1-.64-.44,2.33,2.33,0,0,1-.41-.68,2.21,2.21,0,0,1-.15-.82,2.32,2.32,0,0,1,.15-.84,2.1,2.1,0,0,1,.41-.66,1.81,1.81,0,0,1,.64-.45,1.91,1.91,0,0,1,.8-.16,1.69,1.69,0,0,1,.33,0,1.12,1.12,0,0,1,.26.08,2.11,2.11,0,0,1,.22.14l.19.18V30.1a.24.24,0,0,1,.07-.18.25.25,0,0,1,.18-.07h.73l.09,0,.08.05.07.08a.36.36,0,0,1,0,.1v4.8c0,.17-.09.25-.26.25h-.73s0,0-.06,0A.15.15,0,0,1,62,35a1.17,1.17,0,0,1,0-.11Zm-1.87-1.63a1.23,1.23,0,0,0,.06.39,1.13,1.13,0,0,0,.19.32.86.86,0,0,0,.29.21.84.84,0,0,0,.38.08,1,1,0,0,0,.39-.07,1.16,1.16,0,0,0,.32-.2,1,1,0,0,0,.21-.31,1,1,0,0,0,.1-.38v0a1.1,1.1,0,0,0-.08-.4,1,1,0,0,0-.21-.32.86.86,0,0,0-.33-.23,1,1,0,0,0-.4-.08,1,1,0,0,0-.38.08.8.8,0,0,0-.29.23,1.13,1.13,0,0,0-.19.32A1.34,1.34,0,0,0,60.05,33.12Z" transform="translate(-2 -1.79)"/><path class="cls-3" d="M68.3,34.67a2.18,2.18,0,0,1-.63.4,1.93,1.93,0,0,1-.75.15,2.41,2.41,0,0,1-.84-.16,2.37,2.37,0,0,1-.68-.45,2.13,2.13,0,0,1-.47-.67,2,2,0,0,1-.17-.84,2.51,2.51,0,0,1,.06-.55,2.1,2.1,0,0,1,.2-.49,2.24,2.24,0,0,1,.31-.43,2.06,2.06,0,0,1,.4-.33,2.24,2.24,0,0,1,.5-.22,2,2,0,0,1,.55-.07,1.81,1.81,0,0,1,.52.07,1.63,1.63,0,0,1,.47.2,1.66,1.66,0,0,1,.4.31,1.76,1.76,0,0,1,.32.39,1.73,1.73,0,0,1,.2.46,1.61,1.61,0,0,1,.07.49v.28a.34.34,0,0,1-.05.16.28.28,0,0,1-.15.1l-.31,0H65.94a.73.73,0,0,0,.13.34.69.69,0,0,0,.23.22,1.11,1.11,0,0,0,.27.12l.27,0,.24,0,.23-.07a.67.67,0,0,0,.21-.09.37.37,0,0,0,.15-.11l.1-.06.07,0,.09,0,.1.08.34.39a.25.25,0,0,1,0,.07.17.17,0,0,1,0,.07.2.2,0,0,1,0,.11ZM66.76,32a.56.56,0,0,0-.25.05.67.67,0,0,0-.21.13.86.86,0,0,0-.19.19.8.8,0,0,0-.13.21h1.64a1.21,1.21,0,0,0-.15-.22.89.89,0,0,0-.41-.32A.91.91,0,0,0,66.76,32Z" transform="translate(-2 -1.79)"/><path class="cls-3" d="M73.33,31.13a.2.2,0,0,1,.09-.05H74l.1,0a.2.2,0,0,1,.07.06.35.35,0,0,1,0,.08.36.36,0,0,0,0,.09l.06.29a.85.85,0,0,1,.14-.21.9.9,0,0,1,.23-.19,1.35,1.35,0,0,1,.32-.15,2.09,2.09,0,0,1,.46,0,1.5,1.5,0,0,1,.37,0,.81.81,0,0,1,.29.12,1,1,0,0,1,.25.19,1.43,1.43,0,0,1,.22.26,1.06,1.06,0,0,1,.18-.21,1.62,1.62,0,0,1,.29-.19,1.37,1.37,0,0,1,.37-.15,1.56,1.56,0,0,1,.44-.06,1.47,1.47,0,0,1,.64.14,1.3,1.3,0,0,1,.45.39,1.71,1.71,0,0,1,.27.56,2.63,2.63,0,0,1,.09.7v2.1a.27.27,0,0,1,0,.19.22.22,0,0,1-.17.06h-.74a.3.3,0,0,1-.19,0,.27.27,0,0,1,0-.19V32.8a.75.75,0,0,0-.05-.26.67.67,0,0,0-.12-.2.4.4,0,0,0-.18-.14.53.53,0,0,0-.25-.05.59.59,0,0,0-.23,0,.55.55,0,0,0-.19.14.72.72,0,0,0-.14.2.81.81,0,0,0,0,.27v2.1a.33.33,0,0,1,0,.19.22.22,0,0,1-.17.06H76a.3.3,0,0,1-.19,0s-.06-.09-.06-.19V32.8a1.09,1.09,0,0,0,0-.26.67.67,0,0,0-.12-.2.4.4,0,0,0-.18-.14.52.52,0,0,0-.24-.05.59.59,0,0,0-.23,0,.56.56,0,0,0-.2.14.62.62,0,0,0-.15.2.77.77,0,0,0-.07.26v2.12a.6.6,0,0,1,0,.12.16.16,0,0,1-.06.08.13.13,0,0,1-.08,0h-.81a.27.27,0,0,1-.2-.06.29.29,0,0,1-.06-.19V31.31a.2.2,0,0,1,0-.11.18.18,0,0,1,.07-.08Z" transform="translate(-2 -1.79)"/><path class="cls-3" d="M80.87,33.12a2.25,2.25,0,0,1,.08-.58,2.21,2.21,0,0,1,.21-.5,1.7,1.7,0,0,1,.33-.42,2.18,2.18,0,0,1,.42-.33,2.28,2.28,0,0,1,.51-.21A2.12,2.12,0,0,1,83,31a2.07,2.07,0,0,1,.82.16,2.12,2.12,0,0,1,1.12,1.11,2.13,2.13,0,0,1,.16.84,2.1,2.1,0,0,1-.28,1.07,2.34,2.34,0,0,1-.33.43,2.29,2.29,0,0,1-.43.32,2,2,0,0,1-.5.21,2,2,0,0,1-1.13,0,2.28,2.28,0,0,1-.51-.21,2.59,2.59,0,0,1-.42-.32,2,2,0,0,1-.33-.43,2.25,2.25,0,0,1-.29-1.07Zm1.18,0a1.23,1.23,0,0,0,.06.39,1.13,1.13,0,0,0,.19.32.86.86,0,0,0,.29.21.85.85,0,0,0,.39.08.75.75,0,0,0,.37-.08.78.78,0,0,0,.29-.21.92.92,0,0,0,.18-.32,1,1,0,0,0,.07-.39,1.09,1.09,0,0,0-.07-.4.92.92,0,0,0-.18-.32.73.73,0,0,0-.29-.23.87.87,0,0,0-.37-.08,1,1,0,0,0-.39.08.8.8,0,0,0-.29.23,1.13,1.13,0,0,0-.19.32A1.34,1.34,0,0,0,82.05,33.12Z" transform="translate(-2 -1.79)"/><path class="cls-3" d="M86.17,31.39a.23.23,0,0,1,0-.22c0-.07.09-.1.19-.1h.83a.23.23,0,0,1,.14,0,.19.19,0,0,1,.09.14c0,.11.08.23.12.38s.09.29.14.43.1.3.14.45.09.28.13.4l.11.32.07.19.68-2.17a.28.28,0,0,1,.1-.15.26.26,0,0,1,.14,0h.85l.14,0a.16.16,0,0,1,.07.07.11.11,0,0,1,0,.08.23.23,0,0,1,0,.11L88.52,35a.26.26,0,0,1-.09.09.2.2,0,0,1-.14,0h-.38a.36.36,0,0,1-.18,0,.19.19,0,0,1-.08-.1Z" transform="translate(-2 -1.79)"/><path class="cls-3" d="M91.43,29.7a.27.27,0,0,1,.06-.2.32.32,0,0,1,.18-.05h.75a.35.35,0,0,1,.18.05.23.23,0,0,1,.07.2v.62a.37.37,0,0,1,0,.09.22.22,0,0,1-.05.08.27.27,0,0,1-.08.07.17.17,0,0,1-.1,0h-.75q-.24,0-.24-.27Zm0,1.62a.3.3,0,0,1,.06-.18.23.23,0,0,1,.18-.07h.74a.12.12,0,0,1,.08,0,.2.2,0,0,1,.09.05l.06.08a.17.17,0,0,1,0,.1V34.9a.24.24,0,0,1-.07.19.27.27,0,0,1-.19.06h-.74c-.16,0-.24-.08-.24-.25Z" transform="translate(-2 -1.79)"/><path class="cls-3" d="M94.43,31.13a.14.14,0,0,1,.08-.05h.58l.1,0s0,0,.07.06a.3.3,0,0,1,0,.08l0,.09.07.29a1.2,1.2,0,0,1,.13-.21,1.11,1.11,0,0,1,.23-.19,1.26,1.26,0,0,1,.33-.15,2,2,0,0,1,.45,0,1.4,1.4,0,0,1,.37,0,.79.79,0,0,1,.3.12.92.92,0,0,1,.24.19,2,2,0,0,1,.23.26,1.06,1.06,0,0,1,.18-.21,1.52,1.52,0,0,1,.28-.19,1.31,1.31,0,0,1,.38-.15,1.36,1.36,0,0,1,1.53.47,1.52,1.52,0,0,1,.26.56,2.63,2.63,0,0,1,.1.7v2.1a.27.27,0,0,1-.06.19.18.18,0,0,1-.16.06h-.75a.28.28,0,0,1-.18,0,.23.23,0,0,1-.07-.19V32.8a.75.75,0,0,0,0-.26.41.41,0,0,0-.12-.2.36.36,0,0,0-.18-.14.52.52,0,0,0-.24-.05.67.67,0,0,0-.24,0,.85.85,0,0,0-.19.14.72.72,0,0,0-.14.2,1.17,1.17,0,0,0,0,.27v2.1a.27.27,0,0,1-.06.19.18.18,0,0,1-.16.06H97a.32.32,0,0,1-.19,0s-.06-.09-.06-.19V32.8a.74.74,0,0,0,0-.26,1,1,0,0,0-.11-.2.55.55,0,0,0-.18-.14.52.52,0,0,0-.24-.05.64.64,0,0,0-.24,0,.52.52,0,0,0-.19.14.64.64,0,0,0-.16.2.76.76,0,0,0-.06.26v2.12a.6.6,0,0,1,0,.12l-.06.08-.08,0H94.6a.28.28,0,0,1-.2-.06.29.29,0,0,1-.06-.19V31.31a.2.2,0,0,1,0-.11.27.27,0,0,1,.07-.08Z" transform="translate(-2 -1.79)"/><path class="cls-3" d="M102.09,29.7a.32.32,0,0,1,0-.2.31.31,0,0,1,.19-.05h.75a.35.35,0,0,1,.18.05.27.27,0,0,1,.07.2v.62a.37.37,0,0,1,0,.09.22.22,0,0,1,0,.08.27.27,0,0,1-.08.07.17.17,0,0,1-.1,0h-.75q-.24,0-.24-.27Zm0,1.62a.37.37,0,0,1,0-.18.22.22,0,0,1,.19-.07h.74a.13.13,0,0,1,.08,0,.14.14,0,0,1,.08.05.27.27,0,0,1,.07.08.17.17,0,0,1,0,.1V34.9a.27.27,0,0,1-.07.19.29.29,0,0,1-.19.06h-.74c-.16,0-.24-.08-.24-.25Z" transform="translate(-2 -1.79)"/><path class="cls-3" d="M108.41,34.67a2.32,2.32,0,0,1-.63.4,1.93,1.93,0,0,1-.75.15,2.23,2.23,0,0,1-.83-.16,2.06,2.06,0,0,1-.69-.45,1.85,1.85,0,0,1-.47-.67,2,2,0,0,1-.18-.84,2.51,2.51,0,0,1,.07-.55,2.1,2.1,0,0,1,.2-.49,1.62,1.62,0,0,1,.31-.43,1.8,1.8,0,0,1,.4-.33,2.16,2.16,0,0,1,.49-.22,2,2,0,0,1,.55-.07,1.72,1.72,0,0,1,.52.07,1.68,1.68,0,0,1,.48.2,1.66,1.66,0,0,1,.4.31,1.76,1.76,0,0,1,.32.39,2.13,2.13,0,0,1,.2.46,1.61,1.61,0,0,1,.07.49,2.27,2.27,0,0,1,0,.28.25.25,0,0,1,0,.16.28.28,0,0,1-.15.1l-.32,0H106a.74.74,0,0,0,.14.34.77.77,0,0,0,.22.22,1.59,1.59,0,0,0,.27.12l.28,0,.24,0,.23-.07a.78.78,0,0,0,.21-.09.5.5,0,0,0,.16-.11l.08-.06.08,0,.09,0,.09.08.35.39a.13.13,0,0,1,0,.07.17.17,0,0,1,0,.07.2.2,0,0,1,0,.11A.38.38,0,0,1,108.41,34.67ZM106.86,32a.52.52,0,0,0-.24.05.71.71,0,0,0-.22.13,1.09,1.09,0,0,0-.18.19,1.28,1.28,0,0,0-.14.21h1.65a1.21,1.21,0,0,0-.15-.22,1.11,1.11,0,0,0-.18-.19.65.65,0,0,0-.23-.13A1,1,0,0,0,106.86,32Z" transform="translate(-2 -1.79)"/><path class="cls-3" d="M110.52,31.13a.2.2,0,0,1,.09-.05h.58l.09,0s.06,0,.07.06a.35.35,0,0,1,.05.08l0,.09.07.29a1,1,0,0,1,.16-.21,1.6,1.6,0,0,1,.64-.34,2.16,2.16,0,0,1,.46,0,1.56,1.56,0,0,1,.66.14,1.54,1.54,0,0,1,.49.39,1.77,1.77,0,0,1,.3.56,2.28,2.28,0,0,1,.1.7v2.1a.27.27,0,0,1,0,.19.21.21,0,0,1-.17.06h-.74a.32.32,0,0,1-.19,0,.27.27,0,0,1,0-.19V32.83a.48.48,0,0,0-.07-.26.82.82,0,0,0-.16-.22,1.14,1.14,0,0,0-.23-.15.6.6,0,0,0-.26-.05.56.56,0,0,0-.25.05.74.74,0,0,0-.22.14.73.73,0,0,0-.16.22.61.61,0,0,0-.08.27v2.08a.6.6,0,0,1,0,.12l-.06.08-.08,0h-.82a.28.28,0,0,1-.2-.06.29.29,0,0,1-.06-.19V31.31a.2.2,0,0,1,0-.11.27.27,0,0,1,.07-.08Z" transform="translate(-2 -1.79)"/><path class="cls-3" d="M116.23,30.44a.22.22,0,0,1,.07-.16.85.85,0,0,1,.19-.09l.73-.26h0a.17.17,0,0,1,.16.07.34.34,0,0,1,0,.18v.89h.44a.25.25,0,0,1,.17.06.24.24,0,0,1,.06.18v.62a.28.28,0,0,1-.06.2.25.25,0,0,1-.17.06h-.44V34.9a.24.24,0,0,1-.07.19.29.29,0,0,1-.19.06h-.73a.22.22,0,0,1-.25-.25V32.19h-.33c-.17,0-.25-.08-.25-.26v-.62c0-.16.08-.24.25-.24h.33Z" transform="translate(-2 -1.79)"/><path class="cls-3" d="M119.4,33.12a2.25,2.25,0,0,1,.07-.58,2.21,2.21,0,0,1,.21-.5,1.7,1.7,0,0,1,.33-.42,2.18,2.18,0,0,1,.42-.33,2.49,2.49,0,0,1,.51-.21,2.12,2.12,0,0,1,.57-.07,2.07,2.07,0,0,1,.82.16,1.8,1.8,0,0,1,.66.45,1.92,1.92,0,0,1,.46.66,2.13,2.13,0,0,1,.16.84,2.1,2.1,0,0,1-.28,1.07,1.74,1.74,0,0,1-.34.43,1.94,1.94,0,0,1-.42.32,2.21,2.21,0,0,1-.5.21,2,2,0,0,1-.56.08,2.12,2.12,0,0,1-.57-.08,2.49,2.49,0,0,1-.51-.21,2.59,2.59,0,0,1-.42-.32,2,2,0,0,1-.33-.43,2.1,2.1,0,0,1-.28-1.07Zm1.16,0a1.23,1.23,0,0,0,.07.39.8.8,0,0,0,.19.32.86.86,0,0,0,.29.21.81.81,0,0,0,.38.08.8.8,0,0,0,.39-.08.83.83,0,0,0,.28-.21.94.94,0,0,0,.19-.32,1.23,1.23,0,0,0,.06-.39,1.34,1.34,0,0,0-.06-.4.94.94,0,0,0-.19-.32.77.77,0,0,0-.28-.23.93.93,0,0,0-.39-.08,1,1,0,0,0-.38.08,1,1,0,0,0-.48.55A1.34,1.34,0,0,0,120.56,33.12Z" transform="translate(-2 -1.79)"/><path class="cls-3" d="M125.77,33.88A.9.9,0,0,0,126,34a.88.88,0,0,0,.2.09l.16.06h.25l.18,0a.48.48,0,0,0,.16-.08.19.19,0,0,0,.06-.15.33.33,0,0,0,0-.15l-.12-.09-.16-.06-.22-.07a2.5,2.5,0,0,1-.63-.25,1.31,1.31,0,0,1-.4-.32,1,1,0,0,1-.21-.38,1.56,1.56,0,0,1-.06-.44,1.09,1.09,0,0,1,.11-.48,1.13,1.13,0,0,1,.31-.38,1.54,1.54,0,0,1,.46-.24,2,2,0,0,1,.61-.08,2.25,2.25,0,0,1,.38,0,1.91,1.91,0,0,1,.34.1l.32.19a2.56,2.56,0,0,1,.3.28.21.21,0,0,1,.05.12.16.16,0,0,1-.07.11l-.24.21a2.4,2.4,0,0,0-.24.22l-.07,0h-.08l-.06,0s0,0-.06,0a.62.62,0,0,0-.26-.17,1.47,1.47,0,0,0-.27,0,.44.44,0,0,0-.25.06.19.19,0,0,0,0,.29.41.41,0,0,0,.13.08l.17,0,.17,0a3.9,3.9,0,0,1,.53.21,1.82,1.82,0,0,1,.43.26,1.46,1.46,0,0,1,.27.38,1.5,1.5,0,0,1,.1.55,1.25,1.25,0,0,1-.13.56,1.17,1.17,0,0,1-.34.42,1.66,1.66,0,0,1-.53.27,2.34,2.34,0,0,1-.66.08l-.4,0a1.82,1.82,0,0,1-.4-.11,1.62,1.62,0,0,1-.36-.21,1.14,1.14,0,0,1-.32-.3.41.41,0,0,1,0-.09.44.44,0,0,1,0-.1s0-.06,0-.09a.12.12,0,0,1,.06-.06l.42-.42a.13.13,0,0,1,.13,0A.4.4,0,0,1,125.77,33.88Z" transform="translate(-2 -1.79)"/><path class="cls-3" d="M143.79,38H164a4.1,4.1,0,0,0,4-4.17V14.17A1.21,1.21,0,0,0,166.81,13h0a1.2,1.2,0,0,0-1.22,1.21V33.79A1.62,1.62,0,0,1,164,35.44H143.79a1.63,1.63,0,0,1-1.59-1.65V30.87a1.22,1.22,0,1,0-2.43,0v2.92A4.1,4.1,0,0,0,143.79,38Z" transform="translate(-2 -1.79)"/><path class="cls-3" d="M26.21,1.79H6A4.1,4.1,0,0,0,2,6V25.59a1.2,1.2,0,0,0,1.19,1.2h0a1.2,1.2,0,0,0,1.22-1.2V6A1.62,1.62,0,0,1,6,4.31H26.21A1.63,1.63,0,0,1,27.8,6V8.88a1.22,1.22,0,1,0,2.43,0V6A4.1,4.1,0,0,0,26.21,1.79Z" transform="translate(-2 -1.79)"/></svg>