<svg id="HOME" xmlns="http://www.w3.org/2000/svg" viewBox="0 0 159 193"><defs><style>.cls-1{fill:#ea3546;}</style></defs><title>web</title><path class="cls-1" d="M155.45,159.82,142.31,138a65,65,0,0,1-9.26-33.43V85.87C133.05,57.57,111.22,33.8,83,32A53.59,53.59,0,0,0,26,85.38v19.15A65,65,0,0,1,16.69,138L3.55,159.82a3.81,3.81,0,0,0,3.28,5.79H152.17a3.81,3.81,0,0,0,3.28-5.79Zm-142-2.09,9.65-16.09a72.55,72.55,0,0,0,10.34-37.35V85.63C33.47,60.74,53.12,40,78,39.31a45.89,45.89,0,0,1,47.17,45.83v19.15a72.55,72.55,0,0,0,10.34,37.35l9.65,16.09Z"/><path class="cls-1" d="M78.6,5.1A15.23,15.23,0,0,0,64.28,20.29V35.5A3.84,3.84,0,0,0,68,39.39a3.76,3.76,0,0,0,3.83-3.76V20.45a7.7,7.7,0,1,1,15.4-.1V35.5a3.84,3.84,0,0,0,3.7,3.89,3.76,3.76,0,0,0,3.82-3.76v-15A15.34,15.34,0,0,0,78.6,5.1Z"/><path class="cls-1" d="M95.86,159.75a3.83,3.83,0,1,0-6.6,3.87,11.33,11.33,0,0,1,1.54,5.7,11.47,11.47,0,1,1-21.39-5.7,3.83,3.83,0,1,0-6.6-3.87,19.12,19.12,0,1,0,33.05,0Z"/></svg>